# xmcd
#
# Track frame offsets: 
#        150
#        29275
#        43752
#        64181
#        83593
#        103750
#        125387
#        148878
#        168171
#        191234
#        211363
#        223307
#        249523
#        270895
#
# Disc length: 3924 seconds
#
# Revision: 0
# Processed by: cddbd v1.5.2PL0 Copyright (c) Steve Scherf et al.
# Submitted via: ExactAudioCopy v0.95b3
#
DISCID=cf0f520e
DTITLE=Boyce Edwards Band - Gone
DYEAR=2006
DGENRE=Country
TTITLE0=Blame
TTITLE1=Roadside Signs
TTITLE2=Crawl Out
TTITLE3=Mary
TTITLE4=Driving Through The Night
TTITLE5=Lullaby
TTITLE6=Every Now And Then
TTITLE7=That´s Just Me
TTITLE8=Ballad Of The Homeless
TTITLE9=Scarecrow
TTITLE10=Late Night
TTITLE11=Gone
TTITLE12=Seeing Me Around
TTITLE13=Nails
EXTD=
EXTT0=
EXTT1=
EXTT2=
EXTT3=
EXTT4=
EXTT5=
EXTT6=
EXTT7=
EXTT8=
EXTT9=
EXTT10=
EXTT11=
EXTT12=
EXTT13=
PLAYORDER=
